<?xml version="1.0" encoding="utf-8" standalone="no"?>
<!DOCTYPE svg PUBLIC "-//W3C//DTD SVG 1.1//EN"
  "http://www.w3.org/Graphics/SVG/1.1/DTD/svg11.dtd">
<svg xmlns:xlink="http://www.w3.org/1999/xlink" width="521.542857pt" height="724.4pt" viewBox="0 0 521.542857 724.4" xmlns="http://www.w3.org/2000/svg" version="1.1">
 <metadata>
  <rdf:RDF xmlns:dc="http://purl.org/dc/elements/1.1/" xmlns:cc="http://creativecommons.org/ns#" xmlns:rdf="http://www.w3.org/1999/02/22-rdf-syntax-ns#">
   <cc:Work>
    <dc:type rdf:resource="http://purl.org/dc/dcmitype/StillImage"/>
    <dc:date>2026-08-27T11:29:15.336823</dc:date>
    <dc:format>image/svg+xml</dc:format>
    <dc:creator>
     <cc:Agent>
      <dc:title>Matplotlib v3.10.8, https://matplotlib.org/</dc:title>
     </cc:Agent>
    </dc:creator>
   </cc:Work>
  </rdf:RDF>
 </metadata>
 <defs>
  <style type="text/css">*{stroke-linejoin: round; stroke-linecap: butt}</style>
 </defs>
 <g id="figure_1">
  <g id="patch_1">
   <path d="M -0 724.4 
L 521.542857 724.4 
L 521.542857 0 
L -0 0 
L -0 724.4 
z
" style="fill: none"/>
  </g>
  <g id="axes_1">
   <g id="text_1">
    <!-- Activity Diagram 10: User &amp; Role Management -->
    <g style="fill: #1a1a2e" transform="translate(76.983147 36.36558) scale(0.14 -0.14)">
     <defs>
      <path id="DejaVuSans-Bold-41" d="M 3419 850 
L 1538 850 
L 1241 0 
L 31 0 
L 1759 4666 
L 3194 4666 
L 4922 0 
L 3713 0 
L 3419 850 
z
M 1838 1716 
L 3116 1716 
L 2478 3572 
L 1838 1716 
z
" transform="scale(0.015625)"/>
      <path id="DejaVuSans-Bold-63" d="M 3366 3391 
L 3366 2478 
Q 3138 2634 2908 2709 
Q 2678 2784 2431 2784 
Q 1963 2784 1702 2511 
Q 1441 2238 1441 1747 
Q 1441 1256 1702 982 
Q 1963 709 2431 709 
Q 2694 709 2930 787 
Q 3166 866 3366 1019 
L 3366 103 
Q 3103 6 2833 -42 
Q 2563 -91 2291 -91 
Q 1344 -91 809 395 
Q 275 881 275 1747 
Q 275 2613 809 3098 
Q 1344 3584 2291 3584 
Q 2566 3584 2833 3536 
Q 3100 3488 3366 3391 
z
" transform="scale(0.015625)"/>
      <path id="DejaVuSans-Bold-74" d="M 1759 4494 
L 1759 3500 
L 2913 3500 
L 2913 2700 
L 1759 2700 
L 1759 1216 
Q 1759 972 1856 886 
Q 1953 800 2241 800 
L 2816 800 
L 2816 0 
L 1856 0 
Q 1194 0 917 276 
Q 641 553 641 1216 
L 641 2700 
L 84 2700 
L 84 3500 
L 641 3500 
L 641 4494 
L 1759 4494 
z
" transform="scale(0.015625)"/>
      <path id="DejaVuSans-Bold-69" d="M 538 3500 
L 1656 3500 
L 1656 0 
L 538 0 
L 538 3500 
z
M 538 4863 
L 1656 4863 
L 1656 3950 
L 538 3950 
L 538 4863 
z
" transform="scale(0.015625)"/>
      <path id="DejaVuSans-Bold-76" d="M 97 3500 
L 1216 3500 
L 2088 1081 
L 2956 3500 
L 4078 3500 
L 2700 0 
L 1472 0 
L 97 3500 
z
" transform="scale(0.015625)"/>
      <path id="DejaVuSans-Bold-79" d="M 78 3500 
L 1197 3500 
L 2138 1125 
L 2938 3500 
L 4056 3500 
L 2584 -331 
Q 2363 -916 2067 -1148 
Q 1772 -1381 1288 -1381 
L 641 -1381 
L 641 -647 
L 991 -647 
Q 1275 -647 1404 -556 
Q 1534 -466 1606 -231 
L 1638 -134 
L 78 3500 
z
" transform="scale(0.015625)"/>
      <path id="DejaVuSans-Bold-20" transform="scale(0.015625)"/>
      <path id="DejaVuSans-Bold-44" d="M 1791 3756 
L 1791 909 
L 2222 909 
Q 2959 909 3348 1275 
Q 3738 1641 3738 2338 
Q 3738 3031 3350 3393 
Q 2963 3756 2222 3756 
L 1791 3756 
z
M 588 4666 
L 1856 4666 
Q 2919 4666 3439 4514 
Q 3959 4363 4331 4000 
Q 4659 3684 4818 3271 
Q 4978 2859 4978 2338 
Q 4978 1809 4818 1395 
Q 4659 981 4331 666 
Q 3956 303 3431 151 
Q 2906 0 1856 0 
L 588 0 
L 588 4666 
z
" transform="scale(0.015625)"/>
      <path id="DejaVuSans-Bold-61" d="M 2106 1575 
Q 1756 1575 1579 1456 
Q 1403 1338 1403 1106 
Q 1403 894 1545 773 
Q 1688 653 1941 653 
Q 2256 653 2472 879 
Q 2688 1106 2688 1447 
L 2688 1575 
L 2106 1575 
z
M 3816 1997 
L 3816 0 
L 2688 0 
L 2688 519 
Q 2463 200 2181 54 
Q 1900 -91 1497 -91 
Q 953 -91 614 226 
Q 275 544 275 1050 
Q 275 1666 698 1953 
Q 1122 2241 2028 2241 
L 2688 2241 
L 2688 2328 
Q 2688 2594 2478 2717 
Q 2269 2841 1825 2841 
Q 1466 2841 1156 2769 
Q 847 2697 581 2553 
L 581 3406 
Q 941 3494 1303 3539 
Q 1666 3584 2028 3584 
Q 2975 3584 3395 3211 
Q 3816 2838 3816 1997 
z
" transform="scale(0.015625)"/>
      <path id="DejaVuSans-Bold-67" d="M 2919 594 
Q 2688 288 2409 144 
Q 2131 0 1766 0 
Q 1125 0 706 504 
Q 288 1009 288 1791 
Q 288 2575 706 3076 
Q 1125 3578 1766 3578 
Q 2131 3578 2409 3434 
Q 2688 3291 2919 2981 
L 2919 3500 
L 4044 3500 
L 4044 353 
Q 4044 -491 3511 -936 
Q 2978 -1381 1966 -1381 
Q 1638 -1381 1331 -1331 
Q 1025 -1281 716 -1178 
L 716 -306 
Q 1009 -475 1290 -558 
Q 1572 -641 1856 -641 
Q 2406 -641 2662 -400 
Q 2919 -159 2919 353 
L 2919 594 
z
M 2181 2772 
Q 1834 2772 1640 2515 
Q 1447 2259 1447 1791 
Q 1447 1309 1634 1061 
Q 1822 813 2181 813 
Q 2531 813 2725 1069 
Q 2919 1325 2919 1791 
Q 2919 2259 2725 2515 
Q 2531 2772 2181 2772 
z
" transform="scale(0.015625)"/>
      <path id="DejaVuSans-Bold-72" d="M 3138 2547 
Q 2991 2616 2845 2648 
Q 2700 2681 2553 2681 
Q 2122 2681 1889 2404 
Q 1656 2128 1656 1613 
L 1656 0 
L 538 0 
L 538 3500 
L 1656 3500 
L 1656 2925 
Q 1872 3269 2151 3426 
Q 2431 3584 2822 3584 
Q 2878 3584 2943 3579 
Q 3009 3575 3134 3559 
L 3138 2547 
z
" transform="scale(0.015625)"/>
      <path id="DejaVuSans-Bold-6d" d="M 3781 2919 
Q 3994 3244 4286 3414 
Q 4578 3584 4928 3584 
Q 5531 3584 5847 3212 
Q 6163 2841 6163 2131 
L 6163 0 
L 5038 0 
L 5038 1825 
Q 5041 1866 5042 1909 
Q 5044 1953 5044 2034 
Q 5044 2406 4934 2573 
Q 4825 2741 4581 2741 
Q 4263 2741 4089 2478 
Q 3916 2216 3909 1719 
L 3909 0 
L 2784 0 
L 2784 1825 
Q 2784 2406 2684 2573 
Q 2584 2741 2328 2741 
Q 2006 2741 1831 2477 
Q 1656 2213 1656 1722 
L 1656 0 
L 531 0 
L 531 3500 
L 1656 3500 
L 1656 2988 
Q 1863 3284 2130 3434 
Q 2397 3584 2719 3584 
Q 3081 3584 3359 3409 
Q 3638 3234 3781 2919 
z
" transform="scale(0.015625)"/>
      <path id="DejaVuSans-Bold-31" d="M 750 831 
L 1813 831 
L 1813 3847 
L 722 3622 
L 722 4441 
L 1806 4666 
L 2950 4666 
L 2950 831 
L 4013 831 
L 4013 0 
L 750 0 
L 750 831 
z
" transform="scale(0.015625)"/>
      <path id="DejaVuSans-Bold-30" d="M 2944 2338 
Q 2944 3213 2780 3570 
Q 2616 3928 2228 3928 
Q 1841 3928 1675 3570 
Q 1509 3213 1509 2338 
Q 1509 1453 1675 1090 
Q 1841 728 2228 728 
Q 2613 728 2778 1090 
Q 2944 1453 2944 2338 
z
M 4147 2328 
Q 4147 1169 3647 539 
Q 3147 -91 2228 -91 
Q 1306 -91 806 539 
Q 306 1169 306 2328 
Q 306 3491 806 4120 
Q 1306 4750 2228 4750 
Q 3147 4750 3647 4120 
Q 4147 3491 4147 2328 
z
" transform="scale(0.015625)"/>
      <path id="DejaVuSans-Bold-3a" d="M 716 3500 
L 1844 3500 
L 1844 2291 
L 716 2291 
L 716 3500 
z
M 716 1209 
L 1844 1209 
L 1844 0 
L 716 0 
L 716 1209 
z
" transform="scale(0.015625)"/>
      <path id="DejaVuSans-Bold-55" d="M 588 4666 
L 1791 4666 
L 1791 1869 
Q 1791 1291 1980 1042 
Q 2169 794 2597 794 
Q 3028 794 3217 1042 
Q 3406 1291 3406 1869 
L 3406 4666 
L 4609 4666 
L 4609 1869 
Q 4609 878 4112 393 
Q 3616 -91 2597 -91 
Q 1581 -91 1084 393 
Q 588 878 588 1869 
L 588 4666 
z
" transform="scale(0.015625)"/>
      <path id="DejaVuSans-Bold-73" d="M 3272 3391 
L 3272 2541 
Q 2913 2691 2578 2766 
Q 2244 2841 1947 2841 
Q 1628 2841 1473 2761 
Q 1319 2681 1319 2516 
Q 1319 2381 1436 2309 
Q 1553 2238 1856 2203 
L 2053 2175 
Q 2913 2066 3209 1816 
Q 3506 1566 3506 1031 
Q 3506 472 3093 190 
Q 2681 -91 1863 -91 
Q 1516 -91 1145 -36 
Q 775 19 384 128 
L 384 978 
Q 719 816 1070 734 
Q 1422 653 1784 653 
Q 2113 653 2278 743 
Q 2444 834 2444 1013 
Q 2444 1163 2330 1236 
Q 2216 1309 1875 1350 
L 1678 1375 
Q 931 1469 631 1722 
Q 331 1975 331 2491 
Q 331 3047 712 3315 
Q 1094 3584 1881 3584 
Q 2191 3584 2531 3537 
Q 2872 3491 3272 3391 
z
" transform="scale(0.015625)"/>
      <path id="DejaVuSans-Bold-65" d="M 4031 1759 
L 4031 1441 
L 1416 1441 
Q 1456 1047 1700 850 
Q 1944 653 2381 653 
Q 2734 653 3104 758 
Q 3475 863 3866 1075 
L 3866 213 
Q 3469 63 3072 -14 
Q 2675 -91 2278 -91 
Q 1328 -91 801 392 
Q 275 875 275 1747 
Q 275 2603 792 3093 
Q 1309 3584 2216 3584 
Q 3041 3584 3536 3087 
Q 4031 2591 4031 1759 
z
M 2881 2131 
Q 2881 2450 2695 2645 
Q 2509 2841 2209 2841 
Q 1884 2841 1681 2658 
Q 1478 2475 1428 2131 
L 2881 2131 
z
" transform="scale(0.015625)"/>
      <path id="DejaVuSans-Bold-26" d="M 2497 3097 
L 3775 1691 
Q 3941 1909 4027 2181 
Q 4113 2453 4128 2797 
L 5100 2797 
Q 5053 2228 4879 1784 
Q 4706 1341 4397 1006 
L 5313 0 
L 3988 0 
L 3681 341 
Q 3353 122 2990 15 
Q 2628 -91 2222 -91 
Q 1400 -91 892 342 
Q 384 775 384 1459 
Q 384 1916 607 2267 
Q 831 2619 1338 2950 
Q 1206 3116 1143 3281 
Q 1081 3447 1081 3628 
Q 1081 4138 1478 4444 
Q 1875 4750 2534 4750 
Q 2819 4750 3126 4704 
Q 3434 4659 3769 4569 
L 3769 3700 
Q 3475 3850 3212 3922 
Q 2950 3994 2700 3994 
Q 2459 3994 2326 3901 
Q 2194 3809 2194 3641 
Q 2194 3534 2270 3398 
Q 2347 3263 2497 3097 
z
M 1875 2322 
Q 1672 2175 1569 1989 
Q 1466 1803 1466 1581 
Q 1466 1222 1731 969 
Q 1997 716 2369 716 
Q 2578 716 2759 780 
Q 2941 844 3097 972 
L 1875 2322 
z
" transform="scale(0.015625)"/>
      <path id="DejaVuSans-Bold-52" d="M 2297 2597 
Q 2675 2597 2839 2737 
Q 3003 2878 3003 3200 
Q 3003 3519 2839 3656 
Q 2675 3794 2297 3794 
L 1791 3794 
L 1791 2597 
L 2297 2597 
z
M 1791 1766 
L 1791 0 
L 588 0 
L 588 4666 
L 2425 4666 
Q 3347 4666 3776 4356 
Q 4206 4047 4206 3378 
Q 4206 2916 3982 2619 
Q 3759 2322 3309 2181 
Q 3556 2125 3751 1926 
Q 3947 1728 4147 1325 
L 4800 0 
L 3519 0 
L 2950 1159 
Q 2778 1509 2601 1637 
Q 2425 1766 2131 1766 
L 1791 1766 
z
" transform="scale(0.015625)"/>
      <path id="DejaVuSans-Bold-6f" d="M 2203 2784 
Q 1831 2784 1636 2517 
Q 1441 2250 1441 1747 
Q 1441 1244 1636 976 
Q 1831 709 2203 709 
Q 2569 709 2762 976 
Q 2956 1244 2956 1747 
Q 2956 2250 2762 2517 
Q 2569 2784 2203 2784 
z
M 2203 3584 
Q 3106 3584 3614 3096 
Q 4122 2609 4122 1747 
Q 4122 884 3614 396 
Q 3106 -91 2203 -91 
Q 1297 -91 786 396 
Q 275 884 275 1747 
Q 275 2609 786 3096 
Q 1297 3584 2203 3584 
z
" transform="scale(0.015625)"/>
      <path id="DejaVuSans-Bold-6c" d="M 538 4863 
L 1656 4863 
L 1656 0 
L 538 0 
L 538 4863 
z
" transform="scale(0.015625)"/>
      <path id="DejaVuSans-Bold-4d" d="M 588 4666 
L 2119 4666 
L 3181 2169 
L 4250 4666 
L 5778 4666 
L 5778 0 
L 4641 0 
L 4641 3413 
L 3566 897 
L 2803 897 
L 1728 3413 
L 1728 0 
L 588 0 
L 588 4666 
z
" transform="scale(0.015625)"/>
      <path id="DejaVuSans-Bold-6e" d="M 4056 2131 
L 4056 0 
L 2931 0 
L 2931 347 
L 2931 1631 
Q 2931 2084 2911 2256 
Q 2891 2428 2841 2509 
Q 2775 2619 2662 2680 
Q 2550 2741 2406 2741 
Q 2056 2741 1856 2470 
Q 1656 2200 1656 1722 
L 1656 0 
L 538 0 
L 538 3500 
L 1656 3500 
L 1656 2988 
Q 1909 3294 2193 3439 
Q 2478 3584 2822 3584 
Q 3428 3584 3742 3212 
Q 4056 2841 4056 2131 
z
" transform="scale(0.015625)"/>
     </defs>
     <use xlink:href="#DejaVuSans-Bold-41"/>
     <use xlink:href="#DejaVuSans-Bold-63" transform="translate(77.392578 0)"/>
     <use xlink:href="#DejaVuSans-Bold-74" transform="translate(136.669922 0)"/>
     <use xlink:href="#DejaVuSans-Bold-69" transform="translate(184.472656 0)"/>
     <use xlink:href="#DejaVuSans-Bold-76" transform="translate(218.75 0)"/>
     <use xlink:href="#DejaVuSans-Bold-69" transform="translate(283.935547 0)"/>
     <use xlink:href="#DejaVuSans-Bold-74" transform="translate(318.212891 0)"/>
     <use xlink:href="#DejaVuSans-Bold-79" transform="translate(366.015625 0)"/>
     <use xlink:href="#DejaVuSans-Bold-20" transform="translate(431.201172 0)"/>
     <use xlink:href="#DejaVuSans-Bold-44" transform="translate(466.015625 0)"/>
     <use xlink:href="#DejaVuSans-Bold-69" transform="translate(549.023438 0)"/>
     <use xlink:href="#DejaVuSans-Bold-61" transform="translate(583.300781 0)"/>
     <use xlink:href="#DejaVuSans-Bold-67" transform="translate(650.78125 0)"/>
     <use xlink:href="#DejaVuSans-Bold-72" transform="translate(722.363281 0)"/>
     <use xlink:href="#DejaVuSans-Bold-61" transform="translate(771.679688 0)"/>
     <use xlink:href="#DejaVuSans-Bold-6d" transform="translate(839.160156 0)"/>
     <use xlink:href="#DejaVuSans-Bold-20" transform="translate(943.359375 0)"/>
     <use xlink:href="#DejaVuSans-Bold-31" transform="translate(978.173828 0)"/>
     <use xlink:href="#DejaVuSans-Bold-30" transform="translate(1047.753906 0)"/>
     <use xlink:href="#DejaVuSans-Bold-3a" transform="translate(1117.333984 0)"/>
     <use xlink:href="#DejaVuSans-Bold-20" transform="translate(1157.324219 0)"/>
     <use xlink:href="#DejaVuSans-Bold-55" transform="translate(1192.138672 0)"/>
     <use xlink:href="#DejaVuSans-Bold-73" transform="translate(1273.339844 0)"/>
     <use xlink:href="#DejaVuSans-Bold-65" transform="translate(1332.861328 0)"/>
     <use xlink:href="#DejaVuSans-Bold-72" transform="translate(1400.683594 0)"/>
     <use xlink:href="#DejaVuSans-Bold-20" transform="translate(1450 0)"/>
     <use xlink:href="#DejaVuSans-Bold-26" transform="translate(1484.814453 0)"/>
     <use xlink:href="#DejaVuSans-Bold-20" transform="translate(1572.021484 0)"/>
     <use xlink:href="#DejaVuSans-Bold-52" transform="translate(1606.835938 0)"/>
     <use xlink:href="#DejaVuSans-Bold-6f" transform="translate(1683.837891 0)"/>
     <use xlink:href="#DejaVuSans-Bold-6c" transform="translate(1752.539062 0)"/>
     <use xlink:href="#DejaVuSans-Bold-65" transform="translate(1786.816406 0)"/>
     <use xlink:href="#DejaVuSans-Bold-20" transform="translate(1854.638672 0)"/>
     <use xlink:href="#DejaVuSans-Bold-4d" transform="translate(1889.453125 0)"/>
     <use xlink:href="#DejaVuSans-Bold-61" transform="translate(1988.964844 0)"/>
     <use xlink:href="#DejaVuSans-Bold-6e" transform="translate(2056.445312 0)"/>
     <use xlink:href="#DejaVuSans-Bold-61" transform="translate(2127.636719 0)"/>
     <use xlink:href="#DejaVuSans-Bold-67" transform="translate(2195.117188 0)"/>
     <use xlink:href="#DejaVuSans-Bold-65" transform="translate(2266.699219 0)"/>
     <use xlink:href="#DejaVuSans-Bold-6d" transform="translate(2334.521484 0)"/>
     <use xlink:href="#DejaVuSans-Bold-65" transform="translate(2438.720703 0)"/>
     <use xlink:href="#DejaVuSans-Bold-6e" transform="translate(2506.542969 0)"/>
     <use xlink:href="#DejaVuSans-Bold-74" transform="translate(2577.734375 0)"/>
    </g>
   </g>
   <g id="patch_2">
    <path d="M 260.771429 95.411718 
Q 260.771429 116.234134 260.771429 135.379499 
" style="fill: none; stroke: #333333; stroke-width: 1.5; stroke-linecap: round"/>
    <path d="M 262.771429 131.379499 
L 260.771429 135.379499 
L 258.771429 131.379499 
" style="fill: none; stroke: #333333; stroke-width: 1.5; stroke-linecap: round"/>
   </g>
   <g id="text_2">
    <!-- [Create User] -->
    <g style="fill: #f72585" transform="translate(131.659688 161.27442) scale(0.07 -0.07)">
     <defs>
      <path id="DejaVuSans-Bold-5b" d="M 550 4863 
L 2491 4863 
L 2491 4159 
L 1613 4159 
L 1613 -141 
L 2491 -141 
L 2491 -844 
L 550 -844 
L 550 4863 
z
" transform="scale(0.015625)"/>
      <path id="DejaVuSans-Bold-43" d="M 4288 256 
Q 3956 84 3597 -3 
Q 3238 -91 2847 -91 
Q 1681 -91 1000 561 
Q 319 1213 319 2328 
Q 319 3447 1000 4098 
Q 1681 4750 2847 4750 
Q 3238 4750 3597 4662 
Q 3956 4575 4288 4403 
L 4288 3438 
Q 3953 3666 3628 3772 
Q 3303 3878 2944 3878 
Q 2300 3878 1931 3465 
Q 1563 3053 1563 2328 
Q 1563 1606 1931 1193 
Q 2300 781 2944 781 
Q 3303 781 3628 887 
Q 3953 994 4288 1222 
L 4288 256 
z
" transform="scale(0.015625)"/>
      <path id="DejaVuSans-Bold-5d" d="M 2375 -844 
L 434 -844 
L 434 -141 
L 1313 -141 
L 1313 4159 
L 434 4159 
L 434 4863 
L 2375 4863 
L 2375 -844 
z
" transform="scale(0.015625)"/>
     </defs>
     <use xlink:href="#DejaVuSans-Bold-5b"/>
     <use xlink:href="#DejaVuSans-Bold-43" transform="translate(45.703125 0)"/>
     <use xlink:href="#DejaVuSans-Bold-72" transform="translate(119.091797 0)"/>
     <use xlink:href="#DejaVuSans-Bold-65" transform="translate(168.408203 0)"/>
     <use xlink:href="#DejaVuSans-Bold-61" transform="translate(236.230469 0)"/>
     <use xlink:href="#DejaVuSans-Bold-74" transform="translate(303.710938 0)"/>
     <use xlink:href="#DejaVuSans-Bold-65" transform="translate(351.513672 0)"/>
     <use xlink:href="#DejaVuSans-Bold-20" transform="translate(419.335938 0)"/>
     <use xlink:href="#DejaVuSans-Bold-55" transform="translate(454.150391 0)"/>
     <use xlink:href="#DejaVuSans-Bold-73" transform="translate(535.351562 0)"/>
     <use xlink:href="#DejaVuSans-Bold-65" transform="translate(594.873047 0)"/>
     <use xlink:href="#DejaVuSans-Bold-72" transform="translate(662.695312 0)"/>
     <use xlink:href="#DejaVuSans-Bold-5d" transform="translate(712.011719 0)"/>
    </g>
   </g>
   <g id="text_3">
    <!-- [Manage Role] -->
    <g style="fill: #f72585" transform="translate(336.842857 161.247076) scale(0.07 -0.07)">
     <use xlink:href="#DejaVuSans-Bold-5b"/>
     <use xlink:href="#DejaVuSans-Bold-4d" transform="translate(45.703125 0)"/>
     <use xlink:href="#DejaVuSans-Bold-61" transform="translate(145.214844 0)"/>
     <use xlink:href="#DejaVuSans-Bold-6e" transform="translate(212.695312 0)"/>
     <use xlink:href="#DejaVuSans-Bold-61" transform="translate(283.886719 0)"/>
     <use xlink:href="#DejaVuSans-Bold-67" transform="translate(351.367188 0)"/>
     <use xlink:href="#DejaVuSans-Bold-65" transform="translate(422.949219 0)"/>
     <use xlink:href="#DejaVuSans-Bold-20" transform="translate(490.771484 0)"/>
     <use xlink:href="#DejaVuSans-Bold-52" transform="translate(525.585938 0)"/>
     <use xlink:href="#DejaVuSans-Bold-6f" transform="translate(602.587891 0)"/>
     <use xlink:href="#DejaVuSans-Bold-6c" transform="translate(671.289062 0)"/>
     <use xlink:href="#DejaVuSans-Bold-65" transform="translate(705.566406 0)"/>
     <use xlink:href="#DejaVuSans-Bold-5d" transform="translate(773.388672 0)"/>
    </g>
   </g>
   <g id="patch_3">
    <path d="M 260.771429 181.626313 
Q 260.771429 197.377527 260.771429 211.451691 
" style="fill: none; stroke: #333333; stroke-width: 1.5; stroke-linecap: round"/>
    <path d="M 262.771429 207.451691 
L 260.771429 211.451691 
L 258.771429 207.451691 
" style="fill: none; stroke: #333333; stroke-width: 1.5; stroke-linecap: round"/>
   </g>
   <g id="patch_4">
    <path d="M 260.771429 257.697742 
Q 260.771429 273.448956 260.771429 287.523119 
" style="fill: none; stroke: #333333; stroke-width: 1.5; stroke-linecap: round"/>
    <path d="M 262.771429 283.523119 
L 260.771429 287.523119 
L 258.771429 283.523119 
" style="fill: none; stroke: #333333; stroke-width: 1.5; stroke-linecap: round"/>
   </g>
   <g id="patch_5">
    <path d="M 260.771429 333.76917 
Q 260.771429 349.520385 260.771429 363.594548 
" style="fill: none; stroke: #333333; stroke-width: 1.5; stroke-linecap: round"/>
    <path d="M 262.771429 359.594548 
L 260.771429 363.594548 
L 258.771429 359.594548 
" style="fill: none; stroke: #333333; stroke-width: 1.5; stroke-linecap: round"/>
   </g>
   <g id="patch_6">
    <path d="M 260.771429 409.840599 
Q 260.771429 425.591813 260.771429 439.665977 
" style="fill: none; stroke: #333333; stroke-width: 1.5; stroke-linecap: round"/>
    <path d="M 262.771429 435.665977 
L 260.771429 439.665977 
L 258.771429 435.665977 
" style="fill: none; stroke: #333333; stroke-width: 1.5; stroke-linecap: round"/>
   </g>
   <g id="patch_7">
    <path d="M 260.771429 485.912027 
Q 260.771429 501.663242 260.771429 515.737405 
" style="fill: none; stroke: #333333; stroke-width: 1.5; stroke-linecap: round"/>
    <path d="M 262.771429 511.737405 
L 260.771429 515.737405 
L 258.771429 511.737405 
" style="fill: none; stroke: #333333; stroke-width: 1.5; stroke-linecap: round"/>
   </g>
   <g id="patch_8">
    <path d="M 260.771429 561.983456 
Q 260.771429 577.73467 260.771429 591.808834 
" style="fill: none; stroke: #333333; stroke-width: 1.5; stroke-linecap: round"/>
    <path d="M 262.771429 587.808834 
L 260.771429 591.808834 
L 258.771429 587.808834 
" style="fill: none; stroke: #333333; stroke-width: 1.5; stroke-linecap: round"/>
   </g>
   <g id="patch_9">
    <path d="M 260.771429 93.414286 
C 263.461346 93.414286 266.041453 92.34557 267.943512 90.443512 
C 269.84557 88.541453 270.914286 85.961346 270.914286 83.271429 
C 270.914286 80.581511 269.84557 78.001404 267.943512 76.099346 
C 266.041453 74.197287 263.461346 73.128571 260.771429 73.128571 
C 258.081511 73.128571 255.501404 74.197287 253.599346 76.099346 
C 251.697287 78.001404 250.628571 80.581511 250.628571 83.271429 
C 250.628571 85.961346 251.697287 88.541453 253.599346 90.443512 
C 255.501404 92.34557 258.081511 93.414286 260.771429 93.414286 
z
" clip-path="url(#pb320857287)" style="fill: #1a1a2e; stroke: #1a1a2e; stroke-linejoin: miter"/>
   </g>
   <g id="patch_10">
    <path d="M 260.771429 139.057143 
L 321.628571 159.342857 
L 260.771429 179.628571 
L 199.914286 159.342857 
z
" clip-path="url(#pb320857287)" style="fill: #f72585; stroke: #d61f69; stroke-width: 1.5; stroke-linejoin: miter"/>
   </g>
   <g id="patch_11">
    <path d="M 133.985714 258.235714 
L 387.557143 258.235714 
Q 392.628571 258.235714 392.628571 253.164286 
L 392.628571 217.664286 
Q 392.628571 212.592857 387.557143 212.592857 
L 133.985714 212.592857 
Q 128.914286 212.592857 128.914286 217.664286 
L 128.914286 253.164286 
Q 128.914286 258.235714 133.985714 258.235714 
z
" clip-path="url(#pb320857287)" style="fill: #4361ee; stroke: #3651ce; stroke-width: 1.5; stroke-linejoin: miter"/>
   </g>
   <g id="patch_12">
    <path d="M 133.985714 334.307143 
L 387.557143 334.307143 
Q 392.628571 334.307143 392.628571 329.235714 
L 392.628571 293.735714 
Q 392.628571 288.664286 387.557143 288.664286 
L 133.985714 288.664286 
Q 128.914286 288.664286 128.914286 293.735714 
L 128.914286 329.235714 
Q 128.914286 334.307143 133.985714 334.307143 
z
" clip-path="url(#pb320857287)" style="fill: #4361ee; stroke: #3651ce; stroke-width: 1.5; stroke-linejoin: miter"/>
   </g>
   <g id="patch_13">
    <path d="M 133.985714 410.378571 
L 387.557143 410.378571 
Q 392.628571 410.378571 392.628571 405.307143 
L 392.628571 369.807143 
Q 392.628571 364.735714 387.557143 364.735714 
L 133.985714 364.735714 
Q 128.914286 364.735714 128.914286 369.807143 
L 128.914286 405.307143 
Q 128.914286 410.378571 133.985714 410.378571 
z
" clip-path="url(#pb320857287)" style="fill: #4361ee; stroke: #3651ce; stroke-width: 1.5; stroke-linejoin: miter"/>
   </g>
   <g id="patch_14">
    <path d="M 133.985714 486.45 
L 387.557143 486.45 
Q 392.628571 486.45 392.628571 481.378571 
L 392.628571 445.878571 
Q 392.628571 440.807143 387.557143 440.807143 
L 133.985714 440.807143 
Q 128.914286 440.807143 128.914286 445.878571 
L 128.914286 481.378571 
Q 128.914286 486.45 133.985714 486.45 
z
" clip-path="url(#pb320857287)" style="fill: #4361ee; stroke: #3651ce; stroke-width: 1.5; stroke-linejoin: miter"/>
   </g>
   <g id="patch_15">
    <path d="M 133.985714 562.521429 
L 387.557143 562.521429 
Q 392.628571 562.521429 392.628571 557.45 
L 392.628571 521.95 
Q 392.628571 516.878571 387.557143 516.878571 
L 133.985714 516.878571 
Q 128.914286 516.878571 128.914286 521.95 
L 128.914286 557.45 
Q 128.914286 562.521429 133.985714 562.521429 
z
" clip-path="url(#pb320857287)" style="fill: #4361ee; stroke: #3651ce; stroke-width: 1.5; stroke-linejoin: miter"/>
   </g>
   <g id="patch_16">
    <path d="M 260.771429 628.45 
C 264.133825 628.45 267.358959 627.114106 269.736532 624.736532 
C 272.114106 622.358959 273.45 619.133825 273.45 615.771429 
C 273.45 612.409032 272.114106 609.183898 269.736532 606.806325 
C 267.358959 604.428751 264.133825 603.092857 260.771429 603.092857 
C 257.409032 603.092857 254.183898 604.428751 251.806325 606.806325 
C 249.428751 609.183898 248.092857 612.409032 248.092857 615.771429 
C 248.092857 619.133825 249.428751 622.358959 251.806325 624.736532 
C 254.183898 627.114106 257.409032 628.45 260.771429 628.45 
z
" clip-path="url(#pb320857287)" style="fill: #1a1a2e; stroke: #1a1a2e; stroke-linejoin: miter"/>
   </g>
   <g id="text_4">
    <!-- Action? -->
    <g style="fill: #ffffff" transform="translate(246.18846 161.27442) scale(0.07 -0.07)">
     <defs>
      <path id="DejaVuSans-Bold-3f" d="M 2216 1575 
L 1088 1575 
L 1088 1728 
Q 1088 1984 1191 2182 
Q 1294 2381 1625 2688 
L 1825 2869 
Q 2003 3031 2086 3175 
Q 2169 3319 2169 3463 
Q 2169 3681 2019 3804 
Q 1869 3928 1600 3928 
Q 1347 3928 1053 3823 
Q 759 3719 441 3513 
L 441 4494 
Q 819 4625 1131 4687 
Q 1444 4750 1734 4750 
Q 2497 4750 2897 4439 
Q 3297 4128 3297 3531 
Q 3297 3225 3175 2983 
Q 3053 2741 2759 2463 
L 2559 2284 
Q 2347 2091 2281 1973 
Q 2216 1856 2216 1716 
L 2216 1575 
z
M 1088 1113 
L 2216 1113 
L 2216 0 
L 1088 0 
L 1088 1113 
z
" transform="scale(0.015625)"/>
     </defs>
     <use xlink:href="#DejaVuSans-Bold-41"/>
     <use xlink:href="#DejaVuSans-Bold-63" transform="translate(77.392578 0)"/>
     <use xlink:href="#DejaVuSans-Bold-74" transform="translate(136.669922 0)"/>
     <use xlink:href="#DejaVuSans-Bold-69" transform="translate(184.472656 0)"/>
     <use xlink:href="#DejaVuSans-Bold-6f" transform="translate(218.75 0)"/>
     <use xlink:href="#DejaVuSans-Bold-6e" transform="translate(287.451172 0)"/>
     <use xlink:href="#DejaVuSans-Bold-3f" transform="translate(358.642578 0)"/>
    </g>
   </g>
   <g id="text_5">
    <!-- Fill User Form / Select User -->
    <g style="fill: #ffffff" transform="translate(207.075179 237.621786) scale(0.08 -0.08)">
     <defs>
      <path id="DejaVuSans-46" d="M 628 4666 
L 3309 4666 
L 3309 4134 
L 1259 4134 
L 1259 2759 
L 3109 2759 
L 3109 2228 
L 1259 2228 
L 1259 0 
L 628 0 
L 628 4666 
z
" transform="scale(0.015625)"/>
      <path id="DejaVuSans-69" d="M 603 3500 
L 1178 3500 
L 1178 0 
L 603 0 
L 603 3500 
z
M 603 4863 
L 1178 4863 
L 1178 4134 
L 603 4134 
L 603 4863 
z
" transform="scale(0.015625)"/>
      <path id="DejaVuSans-6c" d="M 603 4863 
L 1178 4863 
L 1178 0 
L 603 0 
L 603 4863 
z
" transform="scale(0.015625)"/>
      <path id="DejaVuSans-20" transform="scale(0.015625)"/>
      <path id="DejaVuSans-55" d="M 556 4666 
L 1191 4666 
L 1191 1831 
Q 1191 1081 1462 751 
Q 1734 422 2344 422 
Q 2950 422 3222 751 
Q 3494 1081 3494 1831 
L 3494 4666 
L 4128 4666 
L 4128 1753 
Q 4128 841 3676 375 
Q 3225 -91 2344 -91 
Q 1459 -91 1007 375 
Q 556 841 556 1753 
L 556 4666 
z
" transform="scale(0.015625)"/>
      <path id="DejaVuSans-73" d="M 2834 3397 
L 2834 2853 
Q 2591 2978 2328 3040 
Q 2066 3103 1784 3103 
Q 1356 3103 1142 2972 
Q 928 2841 928 2578 
Q 928 2378 1081 2264 
Q 1234 2150 1697 2047 
L 1894 2003 
Q 2506 1872 2764 1633 
Q 3022 1394 3022 966 
Q 3022 478 2636 193 
Q 2250 -91 1575 -91 
Q 1294 -91 989 -36 
Q 684 19 347 128 
L 347 722 
Q 666 556 975 473 
Q 1284 391 1588 391 
Q 1994 391 2212 530 
Q 2431 669 2431 922 
Q 2431 1156 2273 1281 
Q 2116 1406 1581 1522 
L 1381 1569 
Q 847 1681 609 1914 
Q 372 2147 372 2553 
Q 372 3047 722 3315 
Q 1072 3584 1716 3584 
Q 2034 3584 2315 3537 
Q 2597 3491 2834 3397 
z
" transform="scale(0.015625)"/>
      <path id="DejaVuSans-65" d="M 3597 1894 
L 3597 1613 
L 953 1613 
Q 991 1019 1311 708 
Q 1631 397 2203 397 
Q 2534 397 2845 478 
Q 3156 559 3463 722 
L 3463 178 
Q 3153 47 2828 -22 
Q 2503 -91 2169 -91 
Q 1331 -91 842 396 
Q 353 884 353 1716 
Q 353 2575 817 3079 
Q 1281 3584 2069 3584 
Q 2775 3584 3186 3129 
Q 3597 2675 3597 1894 
z
M 3022 2063 
Q 3016 2534 2758 2815 
Q 2500 3097 2075 3097 
Q 1594 3097 1305 2825 
Q 1016 2553 972 2059 
L 3022 2063 
z
" transform="scale(0.015625)"/>
      <path id="DejaVuSans-72" d="M 2631 2963 
Q 2534 3019 2420 3045 
Q 2306 3072 2169 3072 
Q 1681 3072 1420 2755 
Q 1159 2438 1159 1844 
L 1159 0 
L 581 0 
L 581 3500 
L 1159 3500 
L 1159 2956 
Q 1341 3275 1631 3429 
Q 1922 3584 2338 3584 
Q 2397 3584 2469 3576 
Q 2541 3569 2628 3553 
L 2631 2963 
z
" transform="scale(0.015625)"/>
      <path id="DejaVuSans-6f" d="M 1959 3097 
Q 1497 3097 1228 2736 
Q 959 2375 959 1747 
Q 959 1119 1226 758 
Q 1494 397 1959 397 
Q 2419 397 2687 759 
Q 2956 1122 2956 1747 
Q 2956 2369 2687 2733 
Q 2419 3097 1959 3097 
z
M 1959 3584 
Q 2709 3584 3137 3096 
Q 3566 2609 3566 1747 
Q 3566 888 3137 398 
Q 2709 -91 1959 -91 
Q 1206 -91 779 398 
Q 353 888 353 1747 
Q 353 2609 779 3096 
Q 1206 3584 1959 3584 
z
" transform="scale(0.015625)"/>
      <path id="DejaVuSans-6d" d="M 3328 2828 
Q 3544 3216 3844 3400 
Q 4144 3584 4550 3584 
Q 5097 3584 5394 3201 
Q 5691 2819 5691 2113 
L 5691 0 
L 5113 0 
L 5113 2094 
Q 5113 2597 4934 2840 
Q 4756 3084 4391 3084 
Q 3944 3084 3684 2787 
Q 3425 2491 3425 1978 
L 3425 0 
L 2847 0 
L 2847 2094 
Q 2847 2600 2669 2842 
Q 2491 3084 2119 3084 
Q 1678 3084 1418 2786 
Q 1159 2488 1159 1978 
L 1159 0 
L 581 0 
L 581 3500 
L 1159 3500 
L 1159 2956 
Q 1356 3278 1631 3431 
Q 1906 3584 2284 3584 
Q 2666 3584 2933 3390 
Q 3200 3197 3328 2828 
z
" transform="scale(0.015625)"/>
      <path id="DejaVuSans-2f" d="M 1625 4666 
L 2156 4666 
L 531 -594 
L 0 -594 
L 1625 4666 
z
" transform="scale(0.015625)"/>
      <path id="DejaVuSans-53" d="M 3425 4513 
L 3425 3897 
Q 3066 4069 2747 4153 
Q 2428 4238 2131 4238 
Q 1616 4238 1336 4038 
Q 1056 3838 1056 3469 
Q 1056 3159 1242 3001 
Q 1428 2844 1947 2747 
L 2328 2669 
Q 3034 2534 3370 2195 
Q 3706 1856 3706 1288 
Q 3706 609 3251 259 
Q 2797 -91 1919 -91 
Q 1588 -91 1214 -16 
Q 841 59 441 206 
L 441 856 
Q 825 641 1194 531 
Q 1563 422 1919 422 
Q 2459 422 2753 634 
Q 3047 847 3047 1241 
Q 3047 1584 2836 1778 
Q 2625 1972 2144 2069 
L 1759 2144 
Q 1053 2284 737 2584 
Q 422 2884 422 3419 
Q 422 4038 858 4394 
Q 1294 4750 2059 4750 
Q 2388 4750 2728 4690 
Q 3069 4631 3425 4513 
z
" transform="scale(0.015625)"/>
      <path id="DejaVuSans-63" d="M 3122 3366 
L 3122 2828 
Q 2878 2963 2633 3030 
Q 2388 3097 2138 3097 
Q 1578 3097 1268 2742 
Q 959 2388 959 1747 
Q 959 1106 1268 751 
Q 1578 397 2138 397 
Q 2388 397 2633 464 
Q 2878 531 3122 666 
L 3122 134 
Q 2881 22 2623 -34 
Q 2366 -91 2075 -91 
Q 1284 -91 818 406 
Q 353 903 353 1747 
Q 353 2603 823 3093 
Q 1294 3584 2113 3584 
Q 2378 3584 2631 3529 
Q 2884 3475 3122 3366 
z
" transform="scale(0.015625)"/>
      <path id="DejaVuSans-74" d="M 1172 4494 
L 1172 3500 
L 2356 3500 
L 2356 3053 
L 1172 3053 
L 1172 1153 
Q 1172 725 1289 603 
Q 1406 481 1766 481 
L 2356 481 
L 2356 0 
L 1766 0 
Q 1100 0 847 248 
Q 594 497 594 1153 
L 594 3053 
L 172 3053 
L 172 3500 
L 594 3500 
L 594 4494 
L 1172 4494 
z
" transform="scale(0.015625)"/>
     </defs>
     <use xlink:href="#DejaVuSans-46"/>
     <use xlink:href="#DejaVuSans-69" transform="translate(50.269531 0)"/>
     <use xlink:href="#DejaVuSans-6c" transform="translate(78.052734 0)"/>
     <use xlink:href="#DejaVuSans-6c" transform="translate(105.835938 0)"/>
     <use xlink:href="#DejaVuSans-20" transform="translate(133.619141 0)"/>
     <use xlink:href="#DejaVuSans-55" transform="translate(165.40625 0)"/>
     <use xlink:href="#DejaVuSans-73" transform="translate(238.599609 0)"/>
     <use xlink:href="#DejaVuSans-65" transform="translate(290.699219 0)"/>
     <use xlink:href="#DejaVuSans-72" transform="translate(352.222656 0)"/>
     <use xlink:href="#DejaVuSans-20" transform="translate(393.335938 0)"/>
     <use xlink:href="#DejaVuSans-46" transform="translate(425.123047 0)"/>
     <use xlink:href="#DejaVuSans-6f" transform="translate(479.017578 0)"/>
     <use xlink:href="#DejaVuSans-72" transform="translate(540.199219 0)"/>
     <use xlink:href="#DejaVuSans-6d" transform="translate(579.5625 0)"/>
     <use xlink:href="#DejaVuSans-20" transform="translate(676.974609 0)"/>
     <use xlink:href="#DejaVuSans-2f" transform="translate(708.761719 0)"/>
     <use xlink:href="#DejaVuSans-20" transform="translate(742.453125 0)"/>
     <use xlink:href="#DejaVuSans-53" transform="translate(774.240234 0)"/>
     <use xlink:href="#DejaVuSans-65" transform="translate(837.716797 0)"/>
     <use xlink:href="#DejaVuSans-6c" transform="translate(899.240234 0)"/>
     <use xlink:href="#DejaVuSans-65" transform="translate(927.023438 0)"/>
     <use xlink:href="#DejaVuSans-63" transform="translate(988.546875 0)"/>
     <use xlink:href="#DejaVuSans-74" transform="translate(1043.527344 0)"/>
     <use xlink:href="#DejaVuSans-20" transform="translate(1082.736328 0)"/>
     <use xlink:href="#DejaVuSans-55" transform="translate(1114.523438 0)"/>
     <use xlink:href="#DejaVuSans-73" transform="translate(1187.716797 0)"/>
     <use xlink:href="#DejaVuSans-65" transform="translate(1239.816406 0)"/>
     <use xlink:href="#DejaVuSans-72" transform="translate(1301.339844 0)"/>
    </g>
   </g>
   <g id="text_6">
    <!-- Assign Role (Encoder/Supervisor/Admin) -->
    <g style="fill: #ffffff" transform="translate(180.227679 313.693214) scale(0.08 -0.08)">
     <defs>
      <path id="DejaVuSans-41" d="M 2188 4044 
L 1331 1722 
L 3047 1722 
L 2188 4044 
z
M 1831 4666 
L 2547 4666 
L 4325 0 
L 3669 0 
L 3244 1197 
L 1141 1197 
L 716 0 
L 50 0 
L 1831 4666 
z
" transform="scale(0.015625)"/>
      <path id="DejaVuSans-67" d="M 2906 1791 
Q 2906 2416 2648 2759 
Q 2391 3103 1925 3103 
Q 1463 3103 1205 2759 
Q 947 2416 947 1791 
Q 947 1169 1205 825 
Q 1463 481 1925 481 
Q 2391 481 2648 825 
Q 2906 1169 2906 1791 
z
M 3481 434 
Q 3481 -459 3084 -895 
Q 2688 -1331 1869 -1331 
Q 1566 -1331 1297 -1286 
Q 1028 -1241 775 -1147 
L 775 -588 
Q 1028 -725 1275 -790 
Q 1522 -856 1778 -856 
Q 2344 -856 2625 -561 
Q 2906 -266 2906 331 
L 2906 616 
Q 2728 306 2450 153 
Q 2172 0 1784 0 
Q 1141 0 747 490 
Q 353 981 353 1791 
Q 353 2603 747 3093 
Q 1141 3584 1784 3584 
Q 2172 3584 2450 3431 
Q 2728 3278 2906 2969 
L 2906 3500 
L 3481 3500 
L 3481 434 
z
" transform="scale(0.015625)"/>
      <path id="DejaVuSans-6e" d="M 3513 2113 
L 3513 0 
L 2938 0 
L 2938 2094 
Q 2938 2591 2744 2837 
Q 2550 3084 2163 3084 
Q 1697 3084 1428 2787 
Q 1159 2491 1159 1978 
L 1159 0 
L 581 0 
L 581 3500 
L 1159 3500 
L 1159 2956 
Q 1366 3272 1645 3428 
Q 1925 3584 2291 3584 
Q 2894 3584 3203 3211 
Q 3513 2838 3513 2113 
z
" transform="scale(0.015625)"/>
      <path id="DejaVuSans-52" d="M 2841 2188 
Q 3044 2119 3236 1894 
Q 3428 1669 3622 1275 
L 4263 0 
L 3584 0 
L 2988 1197 
Q 2756 1666 2539 1819 
Q 2322 1972 1947 1972 
L 1259 1972 
L 1259 0 
L 628 0 
L 628 4666 
L 2053 4666 
Q 2853 4666 3247 4331 
Q 3641 3997 3641 3322 
Q 3641 2881 3436 2590 
Q 3231 2300 2841 2188 
z
M 1259 4147 
L 1259 2491 
L 2053 2491 
Q 2509 2491 2742 2702 
Q 2975 2913 2975 3322 
Q 2975 3731 2742 3939 
Q 2509 4147 2053 4147 
L 1259 4147 
z
" transform="scale(0.015625)"/>
      <path id="DejaVuSans-28" d="M 1984 4856 
Q 1566 4138 1362 3434 
Q 1159 2731 1159 2009 
Q 1159 1288 1364 580 
Q 1569 -128 1984 -844 
L 1484 -844 
Q 1016 -109 783 600 
Q 550 1309 550 2009 
Q 550 2706 781 3412 
Q 1013 4119 1484 4856 
L 1984 4856 
z
" transform="scale(0.015625)"/>
      <path id="DejaVuSans-45" d="M 628 4666 
L 3578 4666 
L 3578 4134 
L 1259 4134 
L 1259 2753 
L 3481 2753 
L 3481 2222 
L 1259 2222 
L 1259 531 
L 3634 531 
L 3634 0 
L 628 0 
L 628 4666 
z
" transform="scale(0.015625)"/>
      <path id="DejaVuSans-64" d="M 2906 2969 
L 2906 4863 
L 3481 4863 
L 3481 0 
L 2906 0 
L 2906 525 
Q 2725 213 2448 61 
Q 2172 -91 1784 -91 
Q 1150 -91 751 415 
Q 353 922 353 1747 
Q 353 2572 751 3078 
Q 1150 3584 1784 3584 
Q 2172 3584 2448 3432 
Q 2725 3281 2906 2969 
z
M 947 1747 
Q 947 1113 1208 752 
Q 1469 391 1925 391 
Q 2381 391 2643 752 
Q 2906 1113 2906 1747 
Q 2906 2381 2643 2742 
Q 2381 3103 1925 3103 
Q 1469 3103 1208 2742 
Q 947 2381 947 1747 
z
" transform="scale(0.015625)"/>
      <path id="DejaVuSans-75" d="M 544 1381 
L 544 3500 
L 1119 3500 
L 1119 1403 
Q 1119 906 1312 657 
Q 1506 409 1894 409 
Q 2359 409 2629 706 
Q 2900 1003 2900 1516 
L 2900 3500 
L 3475 3500 
L 3475 0 
L 2900 0 
L 2900 538 
Q 2691 219 2414 64 
Q 2138 -91 1772 -91 
Q 1169 -91 856 284 
Q 544 659 544 1381 
z
M 1991 3584 
L 1991 3584 
z
" transform="scale(0.015625)"/>
      <path id="DejaVuSans-70" d="M 1159 525 
L 1159 -1331 
L 581 -1331 
L 581 3500 
L 1159 3500 
L 1159 2969 
Q 1341 3281 1617 3432 
Q 1894 3584 2278 3584 
Q 2916 3584 3314 3078 
Q 3713 2572 3713 1747 
Q 3713 922 3314 415 
Q 2916 -91 2278 -91 
Q 1894 -91 1617 61 
Q 1341 213 1159 525 
z
M 3116 1747 
Q 3116 2381 2855 2742 
Q 2594 3103 2138 3103 
Q 1681 3103 1420 2742 
Q 1159 2381 1159 1747 
Q 1159 1113 1420 752 
Q 1681 391 2138 391 
Q 2594 391 2855 752 
Q 3116 1113 3116 1747 
z
" transform="scale(0.015625)"/>
      <path id="DejaVuSans-76" d="M 191 3500 
L 800 3500 
L 1894 563 
L 2988 3500 
L 3597 3500 
L 2284 0 
L 1503 0 
L 191 3500 
z
" transform="scale(0.015625)"/>
      <path id="DejaVuSans-29" d="M 513 4856 
L 1013 4856 
Q 1481 4119 1714 3412 
Q 1947 2706 1947 2009 
Q 1947 1309 1714 600 
Q 1481 -109 1013 -844 
L 513 -844 
Q 928 -128 1133 580 
Q 1338 1288 1338 2009 
Q 1338 2731 1133 3434 
Q 928 4138 513 4856 
z
" transform="scale(0.015625)"/>
     </defs>
     <use xlink:href="#DejaVuSans-41"/>
     <use xlink:href="#DejaVuSans-73" transform="translate(68.408203 0)"/>
     <use xlink:href="#DejaVuSans-73" transform="translate(120.507812 0)"/>
     <use xlink:href="#DejaVuSans-69" transform="translate(172.607422 0)"/>
     <use xlink:href="#DejaVuSans-67" transform="translate(200.390625 0)"/>
     <use xlink:href="#DejaVuSans-6e" transform="translate(263.867188 0)"/>
     <use xlink:href="#DejaVuSans-20" transform="translate(327.246094 0)"/>
     <use xlink:href="#DejaVuSans-52" transform="translate(359.033203 0)"/>
     <use xlink:href="#DejaVuSans-6f" transform="translate(424.015625 0)"/>
     <use xlink:href="#DejaVuSans-6c" transform="translate(485.197266 0)"/>
     <use xlink:href="#DejaVuSans-65" transform="translate(512.980469 0)"/>
     <use xlink:href="#DejaVuSans-20" transform="translate(574.503906 0)"/>
     <use xlink:href="#DejaVuSans-28" transform="translate(606.291016 0)"/>
     <use xlink:href="#DejaVuSans-45" transform="translate(645.304688 0)"/>
     <use xlink:href="#DejaVuSans-6e" transform="translate(708.488281 0)"/>
     <use xlink:href="#DejaVuSans-63" transform="translate(771.867188 0)"/>
     <use xlink:href="#DejaVuSans-6f" transform="translate(826.847656 0)"/>
     <use xlink:href="#DejaVuSans-64" transform="translate(888.029297 0)"/>
     <use xlink:href="#DejaVuSans-65" transform="translate(951.505859 0)"/>
     <use xlink:href="#DejaVuSans-72" transform="translate(1013.029297 0)"/>
     <use xlink:href="#DejaVuSans-2f" transform="translate(1054.142578 0)"/>
     <use xlink:href="#DejaVuSans-53" transform="translate(1087.833984 0)"/>
     <use xlink:href="#DejaVuSans-75" transform="translate(1151.310547 0)"/>
     <use xlink:href="#DejaVuSans-70" transform="translate(1214.689453 0)"/>
     <use xlink:href="#DejaVuSans-65" transform="translate(1278.166016 0)"/>
     <use xlink:href="#DejaVuSans-72" transform="translate(1339.689453 0)"/>
     <use xlink:href="#DejaVuSans-76" transform="translate(1380.802734 0)"/>
     <use xlink:href="#DejaVuSans-69" transform="translate(1439.982422 0)"/>
     <use xlink:href="#DejaVuSans-73" transform="translate(1467.765625 0)"/>
     <use xlink:href="#DejaVuSans-6f" transform="translate(1519.865234 0)"/>
     <use xlink:href="#DejaVuSans-72" transform="translate(1581.046875 0)"/>
     <use xlink:href="#DejaVuSans-2f" transform="translate(1622.160156 0)"/>
     <use xlink:href="#DejaVuSans-41" transform="translate(1655.851562 0)"/>
     <use xlink:href="#DejaVuSans-64" transform="translate(1722.509766 0)"/>
     <use xlink:href="#DejaVuSans-6d" transform="translate(1785.986328 0)"/>
     <use xlink:href="#DejaVuSans-69" transform="translate(1883.398438 0)"/>
     <use xlink:href="#DejaVuSans-6e" transform="translate(1911.181641 0)"/>
     <use xlink:href="#DejaVuSans-29" transform="translate(1974.560547 0)"/>
    </g>
   </g>
   <g id="text_7">
    <!-- Save Changes to Supabase -->
    <g style="fill: #ffffff" transform="translate(206.123304 389.764643) scale(0.08 -0.08)">
     <defs>
      <path id="DejaVuSans-61" d="M 2194 1759 
Q 1497 1759 1228 1600 
Q 959 1441 959 1056 
Q 959 750 1161 570 
Q 1363 391 1709 391 
Q 2188 391 2477 730 
Q 2766 1069 2766 1631 
L 2766 1759 
L 2194 1759 
z
M 3341 1997 
L 3341 0 
L 2766 0 
L 2766 531 
Q 2569 213 2275 61 
Q 1981 -91 1556 -91 
Q 1019 -91 701 211 
Q 384 513 384 1019 
Q 384 1609 779 1909 
Q 1175 2209 1959 2209 
L 2766 2209 
L 2766 2266 
Q 2766 2663 2505 2880 
Q 2244 3097 1772 3097 
Q 1472 3097 1187 3025 
Q 903 2953 641 2809 
L 641 3341 
Q 956 3463 1253 3523 
Q 1550 3584 1831 3584 
Q 2591 3584 2966 3190 
Q 3341 2797 3341 1997 
z
" transform="scale(0.015625)"/>
      <path id="DejaVuSans-43" d="M 4122 4306 
L 4122 3641 
Q 3803 3938 3442 4084 
Q 3081 4231 2675 4231 
Q 1875 4231 1450 3742 
Q 1025 3253 1025 2328 
Q 1025 1406 1450 917 
Q 1875 428 2675 428 
Q 3081 428 3442 575 
Q 3803 722 4122 1019 
L 4122 359 
Q 3791 134 3420 21 
Q 3050 -91 2638 -91 
Q 1578 -91 968 557 
Q 359 1206 359 2328 
Q 359 3453 968 4101 
Q 1578 4750 2638 4750 
Q 3056 4750 3426 4639 
Q 3797 4528 4122 4306 
z
" transform="scale(0.015625)"/>
      <path id="DejaVuSans-68" d="M 3513 2113 
L 3513 0 
L 2938 0 
L 2938 2094 
Q 2938 2591 2744 2837 
Q 2550 3084 2163 3084 
Q 1697 3084 1428 2787 
Q 1159 2491 1159 1978 
L 1159 0 
L 581 0 
L 581 4863 
L 1159 4863 
L 1159 2956 
Q 1366 3272 1645 3428 
Q 1925 3584 2291 3584 
Q 2894 3584 3203 3211 
Q 3513 2838 3513 2113 
z
" transform="scale(0.015625)"/>
      <path id="DejaVuSans-62" d="M 3116 1747 
Q 3116 2381 2855 2742 
Q 2594 3103 2138 3103 
Q 1681 3103 1420 2742 
Q 1159 2381 1159 1747 
Q 1159 1113 1420 752 
Q 1681 391 2138 391 
Q 2594 391 2855 752 
Q 3116 1113 3116 1747 
z
M 1159 2969 
Q 1341 3281 1617 3432 
Q 1894 3584 2278 3584 
Q 2916 3584 3314 3078 
Q 3713 2572 3713 1747 
Q 3713 922 3314 415 
Q 2916 -91 2278 -91 
Q 1894 -91 1617 61 
Q 1341 213 1159 525 
L 1159 0 
L 581 0 
L 581 4863 
L 1159 4863 
L 1159 2969 
z
" transform="scale(0.015625)"/>
     </defs>
     <use xlink:href="#DejaVuSans-53"/>
     <use xlink:href="#DejaVuSans-61" transform="translate(63.476562 0)"/>
     <use xlink:href="#DejaVuSans-76" transform="translate(124.755859 0)"/>
     <use xlink:href="#DejaVuSans-65" transform="translate(183.935547 0)"/>
     <use xlink:href="#DejaVuSans-20" transform="translate(245.458984 0)"/>
     <use xlink:href="#DejaVuSans-43" transform="translate(277.246094 0)"/>
     <use xlink:href="#DejaVuSans-68" transform="translate(347.070312 0)"/>
     <use xlink:href="#DejaVuSans-61" transform="translate(410.449219 0)"/>
     <use xlink:href="#DejaVuSans-6e" transform="translate(471.728516 0)"/>
     <use xlink:href="#DejaVuSans-67" transform="translate(535.107422 0)"/>
     <use xlink:href="#DejaVuSans-65" transform="translate(598.583984 0)"/>
     <use xlink:href="#DejaVuSans-73" transform="translate(660.107422 0)"/>
     <use xlink:href="#DejaVuSans-20" transform="translate(712.207031 0)"/>
     <use xlink:href="#DejaVuSans-74" transform="translate(743.994141 0)"/>
     <use xlink:href="#DejaVuSans-6f" transform="translate(783.203125 0)"/>
     <use xlink:href="#DejaVuSans-20" transform="translate(844.384766 0)"/>
     <use xlink:href="#DejaVuSans-53" transform="translate(876.171875 0)"/>
     <use xlink:href="#DejaVuSans-75" transform="translate(939.648438 0)"/>
     <use xlink:href="#DejaVuSans-70" transform="translate(1003.027344 0)"/>
     <use xlink:href="#DejaVuSans-61" transform="translate(1066.503906 0)"/>
     <use xlink:href="#DejaVuSans-62" transform="translate(1127.783203 0)"/>
     <use xlink:href="#DejaVuSans-61" transform="translate(1191.259766 0)"/>
     <use xlink:href="#DejaVuSans-73" transform="translate(1252.539062 0)"/>
     <use xlink:href="#DejaVuSans-65" transform="translate(1304.638672 0)"/>
    </g>
   </g>
   <g id="text_8">
    <!-- Update RLS Policies -->
    <g style="fill: #ffffff" transform="translate(221.402054 465.836071) scale(0.08 -0.08)">
     <defs>
      <path id="DejaVuSans-4c" d="M 628 4666 
L 1259 4666 
L 1259 531 
L 3531 531 
L 3531 0 
L 628 0 
L 628 4666 
z
" transform="scale(0.015625)"/>
      <path id="DejaVuSans-50" d="M 1259 4147 
L 1259 2394 
L 2053 2394 
Q 2494 2394 2734 2622 
Q 2975 2850 2975 3272 
Q 2975 3691 2734 3919 
Q 2494 4147 2053 4147 
L 1259 4147 
z
M 628 4666 
L 2053 4666 
Q 2838 4666 3239 4311 
Q 3641 3956 3641 3272 
Q 3641 2581 3239 2228 
Q 2838 1875 2053 1875 
L 1259 1875 
L 1259 0 
L 628 0 
L 628 4666 
z
" transform="scale(0.015625)"/>
     </defs>
     <use xlink:href="#DejaVuSans-55"/>
     <use xlink:href="#DejaVuSans-70" transform="translate(73.193359 0)"/>
     <use xlink:href="#DejaVuSans-64" transform="translate(136.669922 0)"/>
     <use xlink:href="#DejaVuSans-61" transform="translate(200.146484 0)"/>
     <use xlink:href="#DejaVuSans-74" transform="translate(261.425781 0)"/>
     <use xlink:href="#DejaVuSans-65" transform="translate(300.634766 0)"/>
     <use xlink:href="#DejaVuSans-20" transform="translate(362.158203 0)"/>
     <use xlink:href="#DejaVuSans-52" transform="translate(393.945312 0)"/>
     <use xlink:href="#DejaVuSans-4c" transform="translate(463.427734 0)"/>
     <use xlink:href="#DejaVuSans-53" transform="translate(519.140625 0)"/>
     <use xlink:href="#DejaVuSans-20" transform="translate(582.617188 0)"/>
     <use xlink:href="#DejaVuSans-50" transform="translate(614.404297 0)"/>
     <use xlink:href="#DejaVuSans-6f" transform="translate(671.082031 0)"/>
     <use xlink:href="#DejaVuSans-6c" transform="translate(732.263672 0)"/>
     <use xlink:href="#DejaVuSans-69" transform="translate(760.046875 0)"/>
     <use xlink:href="#DejaVuSans-63" transform="translate(787.830078 0)"/>
     <use xlink:href="#DejaVuSans-69" transform="translate(842.810547 0)"/>
     <use xlink:href="#DejaVuSans-65" transform="translate(870.59375 0)"/>
     <use xlink:href="#DejaVuSans-73" transform="translate(932.117188 0)"/>
    </g>
   </g>
   <g id="text_9">
    <!-- Show Success Confirmation -->
    <g style="fill: #ffffff" transform="translate(205.455179 541.9075) scale(0.08 -0.08)">
     <defs>
      <path id="DejaVuSans-77" d="M 269 3500 
L 844 3500 
L 1563 769 
L 2278 3500 
L 2956 3500 
L 3675 769 
L 4391 3500 
L 4966 3500 
L 4050 0 
L 3372 0 
L 2619 2869 
L 1863 0 
L 1184 0 
L 269 3500 
z
" transform="scale(0.015625)"/>
      <path id="DejaVuSans-66" d="M 2375 4863 
L 2375 4384 
L 1825 4384 
Q 1516 4384 1395 4259 
Q 1275 4134 1275 3809 
L 1275 3500 
L 2222 3500 
L 2222 3053 
L 1275 3053 
L 1275 0 
L 697 0 
L 697 3053 
L 147 3053 
L 147 3500 
L 697 3500 
L 697 3744 
Q 697 4328 969 4595 
Q 1241 4863 1831 4863 
L 2375 4863 
z
" transform="scale(0.015625)"/>
     </defs>
     <use xlink:href="#DejaVuSans-53"/>
     <use xlink:href="#DejaVuSans-68" transform="translate(63.476562 0)"/>
     <use xlink:href="#DejaVuSans-6f" transform="translate(126.855469 0)"/>
     <use xlink:href="#DejaVuSans-77" transform="translate(188.037109 0)"/>
     <use xlink:href="#DejaVuSans-20" transform="translate(269.824219 0)"/>
     <use xlink:href="#DejaVuSans-53" transform="translate(301.611328 0)"/>
     <use xlink:href="#DejaVuSans-75" transform="translate(365.087891 0)"/>
     <use xlink:href="#DejaVuSans-63" transform="translate(428.466797 0)"/>
     <use xlink:href="#DejaVuSans-63" transform="translate(483.447266 0)"/>
     <use xlink:href="#DejaVuSans-65" transform="translate(538.427734 0)"/>
     <use xlink:href="#DejaVuSans-73" transform="translate(599.951172 0)"/>
     <use xlink:href="#DejaVuSans-73" transform="translate(652.050781 0)"/>
     <use xlink:href="#DejaVuSans-20" transform="translate(704.150391 0)"/>
     <use xlink:href="#DejaVuSans-43" transform="translate(735.9375 0)"/>
     <use xlink:href="#DejaVuSans-6f" transform="translate(805.761719 0)"/>
     <use xlink:href="#DejaVuSans-6e" transform="translate(866.943359 0)"/>
     <use xlink:href="#DejaVuSans-66" transform="translate(930.322266 0)"/>
     <use xlink:href="#DejaVuSans-69" transform="translate(965.527344 0)"/>
     <use xlink:href="#DejaVuSans-72" transform="translate(993.310547 0)"/>
     <use xlink:href="#DejaVuSans-6d" transform="translate(1032.673828 0)"/>
     <use xlink:href="#DejaVuSans-61" transform="translate(1130.085938 0)"/>
     <use xlink:href="#DejaVuSans-74" transform="translate(1191.365234 0)"/>
     <use xlink:href="#DejaVuSans-69" transform="translate(1230.574219 0)"/>
     <use xlink:href="#DejaVuSans-6f" transform="translate(1258.357422 0)"/>
     <use xlink:href="#DejaVuSans-6e" transform="translate(1319.539062 0)"/>
    </g>
   </g>
   <g id="patch_17">
    <path d="M 260.771429 623.378571 
C 262.788866 623.378571 264.723947 622.577035 266.150491 621.150491 
C 267.577035 619.723947 268.378571 617.788866 268.378571 615.771429 
C 268.378571 613.753991 267.577035 611.81891 266.150491 610.392366 
C 264.723947 608.965822 262.788866 608.164286 260.771429 608.164286 
C 258.753991 608.164286 256.81891 608.965822 255.392366 610.392366 
C 253.965822 611.81891 253.164286 613.753991 253.164286 615.771429 
C 253.164286 617.788866 253.965822 619.723947 255.392366 621.150491 
C 256.81891 622.577035 258.753991 623.378571 260.771429 623.378571 
z
" clip-path="url(#pb320857287)" style="fill: #ffffff; stroke: #ffffff; stroke-linejoin: miter"/>
   </g>
   <g id="patch_18">
    <path d="M 260.771429 621.857143 
C 262.385379 621.857143 263.933443 621.215914 265.074678 620.074678 
C 266.215914 618.933443 266.857143 617.385379 266.857143 615.771429 
C 266.857143 614.157478 266.215914 612.609414 265.074678 611.468179 
C 263.933443 610.326944 262.385379 609.685714 260.771429 609.685714 
C 259.157478 609.685714 257.609414 610.326944 256.468179 611.468179 
C 255.326944 612.609414 254.685714 614.157478 254.685714 615.771429 
C 254.685714 617.385379 255.326944 618.933443 256.468179 620.074678 
C 257.609414 621.215914 259.157478 621.857143 260.771429 621.857143 
z
" clip-path="url(#pb320857287)" style="fill: #1a1a2e; stroke: #1a1a2e; stroke-linejoin: miter"/>
   </g>
  </g>
 </g>
 <defs>
  <clipPath id="pb320857287">
   <rect x="7.2" y="7.2" width="507.142857" height="710"/>
  </clipPath>
 </defs>
</svg>
